<svg width="40" height="40" viewBox="0 0 40 40" fill="none" xmlns="http://www.w3.org/2000/svg">
<path d="M10.05 10.0498H12.05L14.71 22.4698C14.8076 22.9247 15.0607 23.3313 15.4258 23.6197C15.7908 23.908 16.245 24.0602 16.71 24.0498H26.49C26.9452 24.0491 27.3865 23.8931 27.7411 23.6076C28.0956 23.3222 28.3422 22.9243 28.4401 22.4798L30.09 15.0498H13.12M17 28.9998C17 29.552 16.5523 29.9998 16 29.9998C15.4477 29.9998 15 29.552 15 28.9998C15 28.4475 15.4477 27.9998 16 27.9998C16.5523 27.9998 17 28.4475 17 28.9998ZM28 28.9998C28 29.552 27.5523 29.9998 27 29.9998C26.4477 29.9998 26 29.552 26 28.9998C26 28.4475 26.4477 27.9998 27 27.9998C27.5523 27.9998 28 28.4475 28 28.9998Z" stroke="#60646C" stroke-width="2" stroke-linecap="round" stroke-linejoin="round"/>
</svg>
